<svg xmlns="http://www.w3.org/2000/svg" id="export" class="canvas" preserveAspectRatio="xMidYMid meet" style="position: absolute; margin: 0px;" width="166" height="1081"><rect id="background" fill="#fff" pointer-events="all" width="166" height="1081"/><g id="origin" transform="translate(7.5244140625, 7.5244140625) scale(1)"><g id="clusters" class="clusters"><g class="cluster" transform="translate(75.244140625,532.8717288970947)"><rect rx="5" ry="5" x="-75.244140625" y="-532.8717288970947" width="150.48828125" height="1065.7434577941895" style="stroke: rgb(0, 0, 0); fill: rgb(0, 0, 0); fill-opacity: 0.02; stroke-opacity: 0.06; stroke-width: 1px;"/></g></g><g id="edge-paths" class="edge-paths"><defs><marker id="arrowhead-vee" viewBox="0 0 10 10" refX="9" refY="5" markerUnits="strokeWidth" markerWidth="8" markerHeight="6" orient="auto" style="fill: rgb(0, 0, 0);"><path d="M 0 0 L 10 5 L 0 10 L 4 5 z" style="stroke-width: 1px;"/></marker><marker id="arrowhead-vee-select" viewBox="0 0 10 10" refX="9" refY="5" markerUnits="strokeWidth" markerWidth="8" markerHeight="6" orient="auto" style="fill: rgb(238, 0, 0);"><path d="M 0 0 L 10 5 L 0 10 L 4 5 z" style="stroke-width: 1px;"/></marker></defs><path id="edge-model/0" class="edge-path" d="M75.244140625,32.630001068115234L75.244140625,34.2966677347819C75.244140625,35.96333440144857,75.244140625,39.2966677347819,75.244140625,42.630001068115234C75.244140625,45.96333440144857,75.244140625,49.2966677347819,75.244140625,50.96333440144857L75.244140625,52.630001068115234" style="stroke: rgb(0, 0, 0); stroke-width: 1px; fill: none; marker-end: url(&quot;#arrowhead-vee&quot;);"/><path id="edge-model/1" class="edge-path" d="M75.244140625,75.26000213623047L75.244140625,76.92666880289714C75.244140625,78.5933354695638,75.244140625,81.92666880289714,75.244140625,85.26000213623047C75.244140625,88.5933354695638,75.244140625,91.92666880289714,75.244140625,93.5933354695638L75.244140625,95.26000213623047" style="stroke: rgb(0, 0, 0); stroke-width: 1px; fill: none; marker-end: url(&quot;#arrowhead-vee&quot;);"/><path id="edge-model/2" class="edge-path" d="M75.244140625,117.8900032043457L75.244140625,119.55666987101237C75.244140625,121.22333653767903,75.244140625,124.55666987101237,75.244140625,127.8900032043457C75.244140625,131.22333653767905,75.244140625,134.55666987101236,75.244140625,136.22333653767905L75.244140625,137.8900032043457" style="stroke: rgb(0, 0, 0); stroke-width: 1px; fill: none; marker-end: url(&quot;#arrowhead-vee&quot;);"/><path id="edge-model/3" class="edge-path" d="M75.244140625,160.52000427246094L75.244140625,162.1866709391276C75.244140625,163.85333760579428,75.244140625,167.1866709391276,75.244140625,170.52000427246094C75.244140625,173.85333760579428,75.244140625,177.1866709391276,75.244140625,178.85333760579428L75.244140625,180.52000427246094" style="stroke: rgb(0, 0, 0); stroke-width: 1px; fill: none; marker-end: url(&quot;#arrowhead-vee&quot;);"/><path id="edge-model/4" class="edge-path" d="M75.244140625,203.15000534057617L75.244140625,204.81667200724283C75.244140625,206.48333867390951,75.244140625,209.81667200724283,75.244140625,213.15000534057617C75.244140625,216.48333867390951,75.244140625,219.81667200724283,75.244140625,221.48333867390951L75.244140625,223.15000534057617" style="stroke: rgb(0, 0, 0); stroke-width: 1px; fill: none; marker-end: url(&quot;#arrowhead-vee&quot;);"/><path id="edge-model/5" class="edge-path" d="M75.244140625,245.7800064086914L75.244140625,247.44667307535806C75.244140625,249.11333974202475,75.244140625,252.44667307535806,75.244140625,255.7800064086914C75.244140625,259.1133397420247,75.244140625,262.4466730753581,75.244140625,264.1133397420247L75.244140625,265.7800064086914" style="stroke: rgb(0, 0, 0); stroke-width: 1px; fill: none; marker-end: url(&quot;#arrowhead-vee&quot;);"/><path id="edge-model/6" class="edge-path" d="M75.244140625,288.41000747680664L75.244140625,290.0766741434733C75.244140625,291.74334081013996,75.244140625,295.0766741434733,75.244140625,298.41000747680664C75.244140625,301.74334081013996,75.244140625,305.0766741434733,75.244140625,306.74334081013996L75.244140625,308.41000747680664" style="stroke: rgb(0, 0, 0); stroke-width: 1px; fill: none; marker-end: url(&quot;#arrowhead-vee&quot;);"/><path id="edge-model/7" class="edge-path" d="M75.244140625,331.0400085449219L75.244140625,332.70667521158856C75.244140625,334.3733418782552,75.244140625,337.70667521158856,75.244140625,341.0400085449219C75.244140625,344.3733418782552,75.244140625,347.70667521158856,75.244140625,349.3733418782552L75.244140625,351.0400085449219" style="stroke: rgb(0, 0, 0); stroke-width: 1px; fill: none; marker-end: url(&quot;#arrowhead-vee&quot;);"/><path id="edge-model/8" class="edge-path" d="M75.244140625,373.6700096130371L75.244140625,375.3366762797038C75.244140625,377.0033429463704,75.244140625,380.3366762797038,75.244140625,383.6700096130371C75.244140625,387.0033429463704,75.244140625,390.3366762797038,75.244140625,392.0033429463704L75.244140625,393.6700096130371" style="stroke: rgb(0, 0, 0); stroke-width: 1px; fill: none; marker-end: url(&quot;#arrowhead-vee&quot;);"/><path id="edge-model/9" class="edge-path" d="M75.244140625,416.30001068115234L75.244140625,417.96667734781903C75.244140625,419.63334401448566,75.244140625,422.96667734781903,75.244140625,426.30001068115234C75.244140625,429.63334401448566,75.244140625,432.96667734781903,75.244140625,434.63334401448566L75.244140625,436.30001068115234" style="stroke: rgb(0, 0, 0); stroke-width: 1px; fill: none; marker-end: url(&quot;#arrowhead-vee&quot;);"/><path id="edge-model/10" class="edge-path" d="M75.244140625,458.9300117492676L75.244140625,460.59667841593426C75.244140625,462.2633450826009,75.244140625,465.59667841593426,75.244140625,468.9300117492676C75.244140625,472.2633450826009,75.244140625,475.59667841593426,75.244140625,477.2633450826009L75.244140625,478.9300117492676" style="stroke: rgb(0, 0, 0); stroke-width: 1px; fill: none; marker-end: url(&quot;#arrowhead-vee&quot;);"/><path id="edge-model/11" class="edge-path" d="M75.244140625,501.5589179992676L75.244140625,503.22558466593426C75.244140625,504.8922513326009,75.244140625,508.22558466593426,75.244140625,511.5589179992676C75.244140625,514.892251332601,75.244140625,518.2255846659342,75.244140625,519.892251332601L75.244140625,521.5589179992676" style="stroke: rgb(0, 0, 0); stroke-width: 1px; fill: none; marker-end: url(&quot;#arrowhead-vee&quot;);"/><path id="edge-model/12" class="edge-path" d="M75.244140625,544.1878242492676L75.244140625,545.8544909159342C75.244140625,547.521157582601,75.244140625,550.8544909159342,75.244140625,554.1878242492676C75.244140625,557.521157582601,75.244140625,560.8544909159342,75.244140625,562.521157582601L75.244140625,564.1878242492676" style="stroke: rgb(0, 0, 0); stroke-width: 1px; fill: none; marker-end: url(&quot;#arrowhead-vee&quot;);"/><path id="edge-model/13" class="edge-path" d="M75.244140625,586.8178253173828L75.244140625,588.4844919840494C75.244140625,590.1511586507162,75.244140625,593.4844919840494,75.244140625,596.8178253173828C75.244140625,600.1511586507162,75.244140625,603.4844919840494,75.244140625,605.1511586507162L75.244140625,606.8178253173828" style="stroke: rgb(0, 0, 0); stroke-width: 1px; fill: none; marker-end: url(&quot;#arrowhead-vee&quot;);"/><path id="edge-model/14" class="edge-path" d="M75.244140625,629.447826385498L75.244140625,631.1144930521647C75.244140625,632.7811597188314,75.244140625,636.1144930521647,75.244140625,639.447826385498C75.244140625,642.7811597188314,75.244140625,646.1144930521647,75.244140625,647.7811597188314L75.244140625,649.447826385498" style="stroke: rgb(0, 0, 0); stroke-width: 1px; fill: none; marker-end: url(&quot;#arrowhead-vee&quot;);"/><path id="edge-model/15" class="edge-path" d="M75.244140625,672.076732635498L75.244140625,673.7433993021647C75.244140625,675.4100659688314,75.244140625,678.7433993021647,75.244140625,682.076732635498C75.244140625,685.4100659688314,75.244140625,688.7433993021647,75.244140625,690.4100659688314L75.244140625,692.076732635498" style="stroke: rgb(0, 0, 0); stroke-width: 1px; fill: none; marker-end: url(&quot;#arrowhead-vee&quot;);"/><path id="edge-model/16" class="edge-path" d="M75.244140625,714.705638885498L75.244140625,716.3723055521647C75.244140625,718.0389722188314,75.244140625,721.3723055521647,75.244140625,724.705638885498C75.244140625,728.0389722188314,75.244140625,731.3723055521647,75.244140625,733.0389722188314L75.244140625,734.705638885498" style="stroke: rgb(0, 0, 0); stroke-width: 1px; fill: none; marker-end: url(&quot;#arrowhead-vee&quot;);"/><path id="edge-model/17" class="edge-path" d="M75.244140625,757.3356399536133L75.244140625,759.0023066202799C75.244140625,760.6689732869467,75.244140625,764.0023066202799,75.244140625,767.3356399536133C75.244140625,770.6689732869467,75.244140625,774.0023066202799,75.244140625,775.6689732869467L75.244140625,777.3356399536133" style="stroke: rgb(0, 0, 0); stroke-width: 1px; fill: none; marker-end: url(&quot;#arrowhead-vee&quot;);"/><path id="edge-model/18" class="edge-path" d="M75.244140625,799.9656410217285L75.244140625,801.6323076883951C75.244140625,803.2989743550619,75.244140625,806.6323076883951,75.244140625,809.9656410217285C75.244140625,813.2989743550619,75.244140625,816.6323076883951,75.244140625,818.2989743550619L75.244140625,819.9656410217285" style="stroke: rgb(0, 0, 0); stroke-width: 1px; fill: none; marker-end: url(&quot;#arrowhead-vee&quot;);"/><path id="edge-model/19" class="edge-path" d="M75.244140625,842.5945472717285L75.244140625,844.2612139383951C75.244140625,845.9278806050619,75.244140625,849.2612139383951,75.244140625,852.5945472717285C75.244140625,855.9278806050619,75.244140625,859.2612139383951,75.244140625,860.9278806050619L75.244140625,862.5945472717285" style="stroke: rgb(0, 0, 0); stroke-width: 1px; fill: none; marker-end: url(&quot;#arrowhead-vee&quot;);"/><path id="edge-model/20" class="edge-path" d="M75.244140625,885.2245483398438L75.244140625,886.8912150065104C75.244140625,888.5578816731771,75.244140625,891.8912150065104,75.244140625,895.2245483398438C75.244140625,898.5578816731771,75.244140625,901.8912150065104,75.244140625,903.5578816731771L75.244140625,905.2245483398438" style="stroke: rgb(0, 0, 0); stroke-width: 1px; fill: none; marker-end: url(&quot;#arrowhead-vee&quot;);"/><path id="edge-model/21" class="edge-path" d="M75.244140625,927.854549407959L75.244140625,929.5212160746256C75.244140625,931.1878827412924,75.244140625,934.5212160746256,75.244140625,937.854549407959C75.244140625,941.1878827412924,75.244140625,944.5212160746256,75.244140625,946.1878827412924L75.244140625,947.854549407959" style="stroke: rgb(0, 0, 0); stroke-width: 1px; fill: none; marker-end: url(&quot;#arrowhead-vee&quot;);"/><path id="edge-model/22" class="edge-path" d="M75.244140625,970.483455657959L75.244140625,972.1501223246256C75.244140625,973.8167889912924,75.244140625,977.1501223246256,75.244140625,980.483455657959C75.244140625,983.8167889912924,75.244140625,987.1501223246256,75.244140625,988.8167889912924L75.244140625,990.483455657959" style="stroke: rgb(0, 0, 0); stroke-width: 1px; fill: none; marker-end: url(&quot;#arrowhead-vee&quot;);"/><path id="edge-model/23" class="edge-path" d="M75.244140625,1013.1134567260742L75.244140625,1014.7801233927408C75.244140625,1016.4467900594076,75.244140625,1019.7801233927408,75.244140625,1023.1134567260742C75.244140625,1026.4467900594075,75.244140625,1029.780123392741,75.244140625,1031.4467900594075L75.244140625,1033.1134567260742" style="stroke: rgb(0, 0, 0); stroke-width: 1px; fill: none; marker-end: url(&quot;#arrowhead-vee&quot;);"/></g><g id="edge-labels" class="edge-labels"/><g id="nodes" class="nodes"><g id="node-name-model/0" class="node graph-node" style="opacity: 1;" transform="matrix(1, 0, 0, 1, 75.2441, 21.315)"><g transform="translate(-31.658203125,-11.315000534057617)"><g class="node-item node-item-type" transform="translate(0,0)"><path d="M5,0h36.7896671295166a0,0 0 0 1 0,0v22.630000114440918a0,0 0 0 1 0,0h-36.7896671295166a5,5 0 0 1 -5,-5v-12.630000114440918a5,5 0 0 1 5,-5z" style="stroke: rgb(0, 0, 0); fill: rgb(0, 0, 0); stroke-width: 0px;"/><text x="6" y="15.861666679382324" style="font-family: -apple-system, BlinkMacSystemFont, &quot;Segoe WPC&quot;, &quot;Segoe UI&quot;, &quot;Ubuntu&quot;, &quot;Droid Sans&quot;, sans-serif, &quot;PingFang SC&quot;; font-size: 11px; text-rendering: geometricprecision; fill: rgb(255, 255, 255);">Focus</text><title>model/0</title></g><g class="node-item node-item-function" transform="translate(41.7896671295166,0)"><path d="M0,0h16.524916648864746a5,5 0 0 1 5,5v12.630000114440918a5,5 0 0 1 -5,5h-16.524916648864746a0,0 0 0 1 0,0v-22.630000114440918a0,0 0 0 1 0,0z" style="stroke: rgb(0, 0, 0); fill: rgb(255, 255, 255); stroke-width: 0px;"/><text x="6" y="15.861666679382324" style="font-family: -apple-system, BlinkMacSystemFont, &quot;Segoe WPC&quot;, &quot;Segoe UI&quot;, &quot;Ubuntu&quot;, &quot;Droid Sans&quot;, sans-serif, &quot;PingFang SC&quot;; font-size: 11px; text-rendering: geometricprecision; fill: rgb(0, 0, 0);">+</text></g><line class="node" x1="41.7896671295166" x2="41.7896671295166" y1="0" y2="22.630000114440918" style="stroke: rgb(51, 51, 51); fill: none; stroke-width: 1px;"/><path class="node border" d="M5,0h53.31458377838135a5,5 0 0 1 5,5v12.630000114440918a5,5 0 0 1 -5,5h-53.31458377838135a5,5 0 0 1 -5,-5v-12.630000114440918a5,5 0 0 1 5,-5z" style="stroke: rgb(51, 51, 51); fill: none; stroke-width: 1px;"/></g></g><g id="node-name-model/1" class="node graph-node" style="opacity: 1;" transform="translate(75.244140625,63.94500160217285)"><g transform="translate(-30.13671875,-11.315000534057617)"><g class="node-item node-item-type" transform="translate(0,0)"><path d="M5,0h33.75a0,0 0 0 1 0,0v22.630000114440918a0,0 0 0 1 0,0h-33.75a5,5 0 0 1 -5,-5v-12.630000114440918a5,5 0 0 1 5,-5z" style="stroke: rgb(0, 0, 0); fill: rgb(0, 0, 0); stroke-width: 0px;"/><text x="6" y="15.861666679382324" style="font-family: -apple-system, BlinkMacSystemFont, &quot;Segoe WPC&quot;, &quot;Segoe UI&quot;, &quot;Ubuntu&quot;, &quot;Droid Sans&quot;, sans-serif, &quot;PingFang SC&quot;; font-size: 11px; text-rendering: geometricprecision; fill: rgb(255, 255, 255);">Conv</text><title>model/1</title></g><g class="node-item node-item-function" transform="translate(38.75,0)"><path d="M0,0h16.524916648864746a5,5 0 0 1 5,5v12.630000114440918a5,5 0 0 1 -5,5h-16.524916648864746a0,0 0 0 1 0,0v-22.630000114440918a0,0 0 0 1 0,0z" style="stroke: rgb(0, 0, 0); fill: rgb(255, 255, 255); stroke-width: 0px;"/><text x="6" y="15.861666679382324" style="font-family: -apple-system, BlinkMacSystemFont, &quot;Segoe WPC&quot;, &quot;Segoe UI&quot;, &quot;Ubuntu&quot;, &quot;Droid Sans&quot;, sans-serif, &quot;PingFang SC&quot;; font-size: 11px; text-rendering: geometricprecision; fill: rgb(0, 0, 0);">+</text></g><line class="node" x1="38.75" x2="38.75" y1="0" y2="22.630000114440918" style="stroke: rgb(51, 51, 51); fill: none; stroke-width: 1px;"/><path class="node border" d="M5,0h50.274916648864746a5,5 0 0 1 5,5v12.630000114440918a5,5 0 0 1 -5,5h-50.274916648864746a5,5 0 0 1 -5,-5v-12.630000114440918a5,5 0 0 1 5,-5z" style="stroke: rgb(51, 51, 51); fill: none; stroke-width: 1px;"/></g></g><g id="node-name-model/2" class="node graph-node" style="opacity: 1;" transform="translate(75.244140625,106.57500267028809)"><g transform="translate(-52.744140625,-11.315000534057617)"><g class="node-item node-item-type" transform="translate(0,0)"><path d="M5,0h78.96275329589844a0,0 0 0 1 0,0v22.630000114440918a0,0 0 0 1 0,0h-78.96275329589844a5,5 0 0 1 -5,-5v-12.630000114440918a5,5 0 0 1 5,-5z" style="stroke: rgb(0, 0, 0); fill: rgb(0, 0, 0); stroke-width: 0px;"/><text x="6" y="15.861666679382324" style="font-family: -apple-system, BlinkMacSystemFont, &quot;Segoe WPC&quot;, &quot;Segoe UI&quot;, &quot;Ubuntu&quot;, &quot;Droid Sans&quot;, sans-serif, &quot;PingFang SC&quot;; font-size: 11px; text-rendering: geometricprecision; fill: rgb(255, 255, 255);">BottleneckCSP</text><title>model/2</title></g><g class="node-item node-item-function" transform="translate(83.96275329589844,0)"><path d="M0,0h16.524916648864746a5,5 0 0 1 5,5v12.630000114440918a5,5 0 0 1 -5,5h-16.524916648864746a0,0 0 0 1 0,0v-22.630000114440918a0,0 0 0 1 0,0z" style="stroke: rgb(0, 0, 0); fill: rgb(255, 255, 255); stroke-width: 0px;"/><text x="6" y="15.861666679382324" style="font-family: -apple-system, BlinkMacSystemFont, &quot;Segoe WPC&quot;, &quot;Segoe UI&quot;, &quot;Ubuntu&quot;, &quot;Droid Sans&quot;, sans-serif, &quot;PingFang SC&quot;; font-size: 11px; text-rendering: geometricprecision; fill: rgb(0, 0, 0);">+</text></g><line class="node" x1="83.96275329589844" x2="83.96275329589844" y1="0" y2="22.630000114440918" style="stroke: rgb(51, 51, 51); fill: none; stroke-width: 1px;"/><path class="node border" d="M5,0h95.48766994476318a5,5 0 0 1 5,5v12.630000114440918a5,5 0 0 1 -5,5h-95.48766994476318a5,5 0 0 1 -5,-5v-12.630000114440918a5,5 0 0 1 5,-5z" style="stroke: rgb(51, 51, 51); fill: none; stroke-width: 1px;"/></g></g><g id="node-name-model/3" class="node graph-node" style="opacity: 1;" transform="translate(75.244140625,149.20500373840332)"><g transform="translate(-30.13671875,-11.315000534057617)"><g class="node-item node-item-type" transform="translate(0,0)"><path d="M5,0h33.75a0,0 0 0 1 0,0v22.630000114440918a0,0 0 0 1 0,0h-33.75a5,5 0 0 1 -5,-5v-12.630000114440918a5,5 0 0 1 5,-5z" style="stroke: rgb(0, 0, 0); fill: rgb(0, 0, 0); stroke-width: 0px;"/><text x="6" y="15.861666679382324" style="font-family: -apple-system, BlinkMacSystemFont, &quot;Segoe WPC&quot;, &quot;Segoe UI&quot;, &quot;Ubuntu&quot;, &quot;Droid Sans&quot;, sans-serif, &quot;PingFang SC&quot;; font-size: 11px; text-rendering: geometricprecision; fill: rgb(255, 255, 255);">Conv</text><title>model/3</title></g><g class="node-item node-item-function" transform="translate(38.75,0)"><path d="M0,0h16.524916648864746a5,5 0 0 1 5,5v12.630000114440918a5,5 0 0 1 -5,5h-16.524916648864746a0,0 0 0 1 0,0v-22.630000114440918a0,0 0 0 1 0,0z" style="stroke: rgb(0, 0, 0); fill: rgb(255, 255, 255); stroke-width: 0px;"/><text x="6" y="15.861666679382324" style="font-family: -apple-system, BlinkMacSystemFont, &quot;Segoe WPC&quot;, &quot;Segoe UI&quot;, &quot;Ubuntu&quot;, &quot;Droid Sans&quot;, sans-serif, &quot;PingFang SC&quot;; font-size: 11px; text-rendering: geometricprecision; fill: rgb(0, 0, 0);">+</text></g><line class="node" x1="38.75" x2="38.75" y1="0" y2="22.630000114440918" style="stroke: rgb(51, 51, 51); fill: none; stroke-width: 1px;"/><path class="node border" d="M5,0h50.274916648864746a5,5 0 0 1 5,5v12.630000114440918a5,5 0 0 1 -5,5h-50.274916648864746a5,5 0 0 1 -5,-5v-12.630000114440918a5,5 0 0 1 5,-5z" style="stroke: rgb(51, 51, 51); fill: none; stroke-width: 1px;"/></g></g><g id="node-name-model/4" class="node graph-node" style="opacity: 1;" transform="translate(75.244140625,191.83500480651855)"><g transform="translate(-52.744140625,-11.315000534057617)"><g class="node-item node-item-type" transform="translate(0,0)"><path d="M5,0h78.96275329589844a0,0 0 0 1 0,0v22.630000114440918a0,0 0 0 1 0,0h-78.96275329589844a5,5 0 0 1 -5,-5v-12.630000114440918a5,5 0 0 1 5,-5z" style="stroke: rgb(0, 0, 0); fill: rgb(0, 0, 0); stroke-width: 0px;"/><text x="6" y="15.861666679382324" style="font-family: -apple-system, BlinkMacSystemFont, &quot;Segoe WPC&quot;, &quot;Segoe UI&quot;, &quot;Ubuntu&quot;, &quot;Droid Sans&quot;, sans-serif, &quot;PingFang SC&quot;; font-size: 11px; text-rendering: geometricprecision; fill: rgb(255, 255, 255);">BottleneckCSP</text><title>model/4</title></g><g class="node-item node-item-function" transform="translate(83.96275329589844,0)"><path d="M0,0h16.524916648864746a5,5 0 0 1 5,5v12.630000114440918a5,5 0 0 1 -5,5h-16.524916648864746a0,0 0 0 1 0,0v-22.630000114440918a0,0 0 0 1 0,0z" style="stroke: rgb(0, 0, 0); fill: rgb(255, 255, 255); stroke-width: 0px;"/><text x="6" y="15.861666679382324" style="font-family: -apple-system, BlinkMacSystemFont, &quot;Segoe WPC&quot;, &quot;Segoe UI&quot;, &quot;Ubuntu&quot;, &quot;Droid Sans&quot;, sans-serif, &quot;PingFang SC&quot;; font-size: 11px; text-rendering: geometricprecision; fill: rgb(0, 0, 0);">+</text></g><line class="node" x1="83.96275329589844" x2="83.96275329589844" y1="0" y2="22.630000114440918" style="stroke: rgb(51, 51, 51); fill: none; stroke-width: 1px;"/><path class="node border" d="M5,0h95.48766994476318a5,5 0 0 1 5,5v12.630000114440918a5,5 0 0 1 -5,5h-95.48766994476318a5,5 0 0 1 -5,-5v-12.630000114440918a5,5 0 0 1 5,-5z" style="stroke: rgb(51, 51, 51); fill: none; stroke-width: 1px;"/></g></g><g id="node-name-model/5" class="node graph-node" style="opacity: 1;" transform="translate(75.244140625,234.4650058746338)"><g transform="translate(-30.13671875,-11.315000534057617)"><g class="node-item node-item-type" transform="translate(0,0)"><path d="M5,0h33.75a0,0 0 0 1 0,0v22.630000114440918a0,0 0 0 1 0,0h-33.75a5,5 0 0 1 -5,-5v-12.630000114440918a5,5 0 0 1 5,-5z" style="stroke: rgb(0, 0, 0); fill: rgb(0, 0, 0); stroke-width: 0px;"/><text x="6" y="15.861666679382324" style="font-family: -apple-system, BlinkMacSystemFont, &quot;Segoe WPC&quot;, &quot;Segoe UI&quot;, &quot;Ubuntu&quot;, &quot;Droid Sans&quot;, sans-serif, &quot;PingFang SC&quot;; font-size: 11px; text-rendering: geometricprecision; fill: rgb(255, 255, 255);">Conv</text><title>model/5</title></g><g class="node-item node-item-function" transform="translate(38.75,0)"><path d="M0,0h16.524916648864746a5,5 0 0 1 5,5v12.630000114440918a5,5 0 0 1 -5,5h-16.524916648864746a0,0 0 0 1 0,0v-22.630000114440918a0,0 0 0 1 0,0z" style="stroke: rgb(0, 0, 0); fill: rgb(255, 255, 255); stroke-width: 0px;"/><text x="6" y="15.861666679382324" style="font-family: -apple-system, BlinkMacSystemFont, &quot;Segoe WPC&quot;, &quot;Segoe UI&quot;, &quot;Ubuntu&quot;, &quot;Droid Sans&quot;, sans-serif, &quot;PingFang SC&quot;; font-size: 11px; text-rendering: geometricprecision; fill: rgb(0, 0, 0);">+</text></g><line class="node" x1="38.75" x2="38.75" y1="0" y2="22.630000114440918" style="stroke: rgb(51, 51, 51); fill: none; stroke-width: 1px;"/><path class="node border" d="M5,0h50.274916648864746a5,5 0 0 1 5,5v12.630000114440918a5,5 0 0 1 -5,5h-50.274916648864746a5,5 0 0 1 -5,-5v-12.630000114440918a5,5 0 0 1 5,-5z" style="stroke: rgb(51, 51, 51); fill: none; stroke-width: 1px;"/></g></g><g id="node-name-model/6" class="node graph-node" style="opacity: 1;" transform="translate(75.244140625,277.095006942749)"><g transform="translate(-52.744140625,-11.315000534057617)"><g class="node-item node-item-type" transform="translate(0,0)"><path d="M5,0h78.96275329589844a0,0 0 0 1 0,0v22.630000114440918a0,0 0 0 1 0,0h-78.96275329589844a5,5 0 0 1 -5,-5v-12.630000114440918a5,5 0 0 1 5,-5z" style="stroke: rgb(0, 0, 0); fill: rgb(0, 0, 0); stroke-width: 0px;"/><text x="6" y="15.861666679382324" style="font-family: -apple-system, BlinkMacSystemFont, &quot;Segoe WPC&quot;, &quot;Segoe UI&quot;, &quot;Ubuntu&quot;, &quot;Droid Sans&quot;, sans-serif, &quot;PingFang SC&quot;; font-size: 11px; text-rendering: geometricprecision; fill: rgb(255, 255, 255);">BottleneckCSP</text><title>model/6</title></g><g class="node-item node-item-function" transform="translate(83.96275329589844,0)"><path d="M0,0h16.524916648864746a5,5 0 0 1 5,5v12.630000114440918a5,5 0 0 1 -5,5h-16.524916648864746a0,0 0 0 1 0,0v-22.630000114440918a0,0 0 0 1 0,0z" style="stroke: rgb(0, 0, 0); fill: rgb(255, 255, 255); stroke-width: 0px;"/><text x="6" y="15.861666679382324" style="font-family: -apple-system, BlinkMacSystemFont, &quot;Segoe WPC&quot;, &quot;Segoe UI&quot;, &quot;Ubuntu&quot;, &quot;Droid Sans&quot;, sans-serif, &quot;PingFang SC&quot;; font-size: 11px; text-rendering: geometricprecision; fill: rgb(0, 0, 0);">+</text></g><line class="node" x1="83.96275329589844" x2="83.96275329589844" y1="0" y2="22.630000114440918" style="stroke: rgb(51, 51, 51); fill: none; stroke-width: 1px;"/><path class="node border" d="M5,0h95.48766994476318a5,5 0 0 1 5,5v12.630000114440918a5,5 0 0 1 -5,5h-95.48766994476318a5,5 0 0 1 -5,-5v-12.630000114440918a5,5 0 0 1 5,-5z" style="stroke: rgb(51, 51, 51); fill: none; stroke-width: 1px;"/></g></g><g id="node-name-model/7" class="node graph-node" style="opacity: 1;" transform="translate(75.244140625,319.72500801086426)"><g transform="translate(-30.13671875,-11.315000534057617)"><g class="node-item node-item-type" transform="translate(0,0)"><path d="M5,0h33.75a0,0 0 0 1 0,0v22.630000114440918a0,0 0 0 1 0,0h-33.75a5,5 0 0 1 -5,-5v-12.630000114440918a5,5 0 0 1 5,-5z" style="stroke: rgb(0, 0, 0); fill: rgb(0, 0, 0); stroke-width: 0px;"/><text x="6" y="15.861666679382324" style="font-family: -apple-system, BlinkMacSystemFont, &quot;Segoe WPC&quot;, &quot;Segoe UI&quot;, &quot;Ubuntu&quot;, &quot;Droid Sans&quot;, sans-serif, &quot;PingFang SC&quot;; font-size: 11px; text-rendering: geometricprecision; fill: rgb(255, 255, 255);">Conv</text><title>model/7</title></g><g class="node-item node-item-function" transform="translate(38.75,0)"><path d="M0,0h16.524916648864746a5,5 0 0 1 5,5v12.630000114440918a5,5 0 0 1 -5,5h-16.524916648864746a0,0 0 0 1 0,0v-22.630000114440918a0,0 0 0 1 0,0z" style="stroke: rgb(0, 0, 0); fill: rgb(255, 255, 255); stroke-width: 0px;"/><text x="6" y="15.861666679382324" style="font-family: -apple-system, BlinkMacSystemFont, &quot;Segoe WPC&quot;, &quot;Segoe UI&quot;, &quot;Ubuntu&quot;, &quot;Droid Sans&quot;, sans-serif, &quot;PingFang SC&quot;; font-size: 11px; text-rendering: geometricprecision; fill: rgb(0, 0, 0);">+</text></g><line class="node" x1="38.75" x2="38.75" y1="0" y2="22.630000114440918" style="stroke: rgb(51, 51, 51); fill: none; stroke-width: 1px;"/><path class="node border" d="M5,0h50.274916648864746a5,5 0 0 1 5,5v12.630000114440918a5,5 0 0 1 -5,5h-50.274916648864746a5,5 0 0 1 -5,-5v-12.630000114440918a5,5 0 0 1 5,-5z" style="stroke: rgb(51, 51, 51); fill: none; stroke-width: 1px;"/></g></g><g id="node-name-model/8" class="node graph-node" style="opacity: 1;" transform="translate(75.244140625,362.3550090789795)"><g transform="translate(-26.845703125,-11.315000534057617)"><g class="node-item node-item-type" transform="translate(0,0)"><path d="M5,0h27.16558265686035a0,0 0 0 1 0,0v22.630000114440918a0,0 0 0 1 0,0h-27.16558265686035a5,5 0 0 1 -5,-5v-12.630000114440918a5,5 0 0 1 5,-5z" style="stroke: rgb(0, 0, 0); fill: rgb(0, 0, 0); stroke-width: 0px;"/><text x="6" y="15.861666679382324" style="font-family: -apple-system, BlinkMacSystemFont, &quot;Segoe WPC&quot;, &quot;Segoe UI&quot;, &quot;Ubuntu&quot;, &quot;Droid Sans&quot;, sans-serif, &quot;PingFang SC&quot;; font-size: 11px; text-rendering: geometricprecision; fill: rgb(255, 255, 255);">SPP</text><title>model/8</title></g><g class="node-item node-item-function" transform="translate(32.16558265686035,0)"><path d="M0,0h16.524916648864746a5,5 0 0 1 5,5v12.630000114440918a5,5 0 0 1 -5,5h-16.524916648864746a0,0 0 0 1 0,0v-22.630000114440918a0,0 0 0 1 0,0z" style="stroke: rgb(0, 0, 0); fill: rgb(255, 255, 255); stroke-width: 0px;"/><text x="6" y="15.861666679382324" style="font-family: -apple-system, BlinkMacSystemFont, &quot;Segoe WPC&quot;, &quot;Segoe UI&quot;, &quot;Ubuntu&quot;, &quot;Droid Sans&quot;, sans-serif, &quot;PingFang SC&quot;; font-size: 11px; text-rendering: geometricprecision; fill: rgb(0, 0, 0);">+</text></g><line class="node" x1="32.16558265686035" x2="32.16558265686035" y1="0" y2="22.630000114440918" style="stroke: rgb(51, 51, 51); fill: none; stroke-width: 1px;"/><path class="node border" d="M5,0h43.6904993057251a5,5 0 0 1 5,5v12.630000114440918a5,5 0 0 1 -5,5h-43.6904993057251a5,5 0 0 1 -5,-5v-12.630000114440918a5,5 0 0 1 5,-5z" style="stroke: rgb(51, 51, 51); fill: none; stroke-width: 1px;"/></g></g><g id="node-name-model/9" class="node graph-node" style="opacity: 1;" transform="translate(75.244140625,404.9850101470947)"><g transform="translate(-52.744140625,-11.315000534057617)"><g class="node-item node-item-type" transform="translate(0,0)"><path d="M5,0h78.96275329589844a0,0 0 0 1 0,0v22.630000114440918a0,0 0 0 1 0,0h-78.96275329589844a5,5 0 0 1 -5,-5v-12.630000114440918a5,5 0 0 1 5,-5z" style="stroke: rgb(0, 0, 0); fill: rgb(0, 0, 0); stroke-width: 0px;"/><text x="6" y="15.861666679382324" style="font-family: -apple-system, BlinkMacSystemFont, &quot;Segoe WPC&quot;, &quot;Segoe UI&quot;, &quot;Ubuntu&quot;, &quot;Droid Sans&quot;, sans-serif, &quot;PingFang SC&quot;; font-size: 11px; text-rendering: geometricprecision; fill: rgb(255, 255, 255);">BottleneckCSP</text><title>model/9</title></g><g class="node-item node-item-function" transform="translate(83.96275329589844,0)"><path d="M0,0h16.524916648864746a5,5 0 0 1 5,5v12.630000114440918a5,5 0 0 1 -5,5h-16.524916648864746a0,0 0 0 1 0,0v-22.630000114440918a0,0 0 0 1 0,0z" style="stroke: rgb(0, 0, 0); fill: rgb(255, 255, 255); stroke-width: 0px;"/><text x="6" y="15.861666679382324" style="font-family: -apple-system, BlinkMacSystemFont, &quot;Segoe WPC&quot;, &quot;Segoe UI&quot;, &quot;Ubuntu&quot;, &quot;Droid Sans&quot;, sans-serif, &quot;PingFang SC&quot;; font-size: 11px; text-rendering: geometricprecision; fill: rgb(0, 0, 0);">+</text></g><line class="node" x1="83.96275329589844" x2="83.96275329589844" y1="0" y2="22.630000114440918" style="stroke: rgb(51, 51, 51); fill: none; stroke-width: 1px;"/><path class="node border" d="M5,0h95.48766994476318a5,5 0 0 1 5,5v12.630000114440918a5,5 0 0 1 -5,5h-95.48766994476318a5,5 0 0 1 -5,-5v-12.630000114440918a5,5 0 0 1 5,-5z" style="stroke: rgb(51, 51, 51); fill: none; stroke-width: 1px;"/></g></g><g id="node-name-model/10" class="node graph-node" style="opacity: 1;" transform="translate(75.244140625,447.61501121520996)"><g transform="translate(-30.13671875,-11.315000534057617)"><g class="node-item node-item-type" transform="translate(0,0)"><path d="M5,0h33.75a0,0 0 0 1 0,0v22.630000114440918a0,0 0 0 1 0,0h-33.75a5,5 0 0 1 -5,-5v-12.630000114440918a5,5 0 0 1 5,-5z" style="stroke: rgb(0, 0, 0); fill: rgb(0, 0, 0); stroke-width: 0px;"/><text x="6" y="15.861666679382324" style="font-family: -apple-system, BlinkMacSystemFont, &quot;Segoe WPC&quot;, &quot;Segoe UI&quot;, &quot;Ubuntu&quot;, &quot;Droid Sans&quot;, sans-serif, &quot;PingFang SC&quot;; font-size: 11px; text-rendering: geometricprecision; fill: rgb(255, 255, 255);">Conv</text><title>model/10</title></g><g class="node-item node-item-function" transform="translate(38.75,0)"><path d="M0,0h16.524916648864746a5,5 0 0 1 5,5v12.630000114440918a5,5 0 0 1 -5,5h-16.524916648864746a0,0 0 0 1 0,0v-22.630000114440918a0,0 0 0 1 0,0z" style="stroke: rgb(0, 0, 0); fill: rgb(255, 255, 255); stroke-width: 0px;"/><text x="6" y="15.861666679382324" style="font-family: -apple-system, BlinkMacSystemFont, &quot;Segoe WPC&quot;, &quot;Segoe UI&quot;, &quot;Ubuntu&quot;, &quot;Droid Sans&quot;, sans-serif, &quot;PingFang SC&quot;; font-size: 11px; text-rendering: geometricprecision; fill: rgb(0, 0, 0);">+</text></g><line class="node" x1="38.75" x2="38.75" y1="0" y2="22.630000114440918" style="stroke: rgb(51, 51, 51); fill: none; stroke-width: 1px;"/><path class="node border" d="M5,0h50.274916648864746a5,5 0 0 1 5,5v12.630000114440918a5,5 0 0 1 -5,5h-50.274916648864746a5,5 0 0 1 -5,-5v-12.630000114440918a5,5 0 0 1 5,-5z" style="stroke: rgb(51, 51, 51); fill: none; stroke-width: 1px;"/></g></g><g id="node-name-model/11" class="node graph-node" style="opacity: 1;" transform="translate(75.244140625,490.2444648742676)"><g transform="translate(-31.322265625,-11.314453125)"><g class="node-item node-item-type node-item-type-data" transform="translate(0,0)"><path d="M5,0h52.645668029785156a5,5 0 0 1 5,5v12.630000114440918a5,5 0 0 1 -5,5h-52.645668029785156a5,5 0 0 1 -5,-5v-12.630000114440918a5,5 0 0 1 5,-5z" style="stroke: rgb(0, 0, 0); fill: rgb(85, 85, 85); stroke-width: 0px;"/><text x="6" y="15.861666679382324" style="font-family: -apple-system, BlinkMacSystemFont, &quot;Segoe WPC&quot;, &quot;Segoe UI&quot;, &quot;Ubuntu&quot;, &quot;Droid Sans&quot;, sans-serif, &quot;PingFang SC&quot;; font-size: 11px; text-rendering: geometricprecision; fill: rgb(255, 255, 255);">Upsample</text><title>model/11</title></g><path class="node border" d="M5,0h52.645668029785156a5,5 0 0 1 5,5v12.630000114440918a5,5 0 0 1 -5,5h-52.645668029785156a5,5 0 0 1 -5,-5v-12.630000114440918a5,5 0 0 1 5,-5z" style="stroke: rgb(51, 51, 51); fill: none; stroke-width: 1px;"/></g></g><g id="node-name-model/12" class="node graph-node" style="opacity: 1;" transform="translate(75.244140625,532.8733711242676)"><g transform="translate(-23.943359375,-11.314453125)"><g class="node-item node-item-type" transform="translate(0,0)"><path d="M5,0h37.885498046875a5,5 0 0 1 5,5v12.630000114440918a5,5 0 0 1 -5,5h-37.885498046875a5,5 0 0 1 -5,-5v-12.630000114440918a5,5 0 0 1 5,-5z" style="stroke: rgb(0, 0, 0); fill: rgb(0, 0, 0); stroke-width: 0px;"/><text x="6" y="15.861666679382324" style="font-family: -apple-system, BlinkMacSystemFont, &quot;Segoe WPC&quot;, &quot;Segoe UI&quot;, &quot;Ubuntu&quot;, &quot;Droid Sans&quot;, sans-serif, &quot;PingFang SC&quot;; font-size: 11px; text-rendering: geometricprecision; fill: rgb(255, 255, 255);">Concat</text><title>model/12</title></g><path class="node border" d="M5,0h37.885498046875a5,5 0 0 1 5,5v12.630000114440918a5,5 0 0 1 -5,5h-37.885498046875a5,5 0 0 1 -5,-5v-12.630000114440918a5,5 0 0 1 5,-5z" style="stroke: rgb(51, 51, 51); fill: none; stroke-width: 1px;"/></g></g><g id="node-name-model/13" class="node graph-node" style="opacity: 1;" transform="translate(75.244140625,575.5028247833252)"><g transform="translate(-52.744140625,-11.315000534057617)"><g class="node-item node-item-type" transform="translate(0,0)"><path d="M5,0h78.96275329589844a0,0 0 0 1 0,0v22.630000114440918a0,0 0 0 1 0,0h-78.96275329589844a5,5 0 0 1 -5,-5v-12.630000114440918a5,5 0 0 1 5,-5z" style="stroke: rgb(0, 0, 0); fill: rgb(0, 0, 0); stroke-width: 0px;"/><text x="6" y="15.861666679382324" style="font-family: -apple-system, BlinkMacSystemFont, &quot;Segoe WPC&quot;, &quot;Segoe UI&quot;, &quot;Ubuntu&quot;, &quot;Droid Sans&quot;, sans-serif, &quot;PingFang SC&quot;; font-size: 11px; text-rendering: geometricprecision; fill: rgb(255, 255, 255);">BottleneckCSP</text><title>model/13</title></g><g class="node-item node-item-function" transform="translate(83.96275329589844,0)"><path d="M0,0h16.524916648864746a5,5 0 0 1 5,5v12.630000114440918a5,5 0 0 1 -5,5h-16.524916648864746a0,0 0 0 1 0,0v-22.630000114440918a0,0 0 0 1 0,0z" style="stroke: rgb(0, 0, 0); fill: rgb(255, 255, 255); stroke-width: 0px;"/><text x="6" y="15.861666679382324" style="font-family: -apple-system, BlinkMacSystemFont, &quot;Segoe WPC&quot;, &quot;Segoe UI&quot;, &quot;Ubuntu&quot;, &quot;Droid Sans&quot;, sans-serif, &quot;PingFang SC&quot;; font-size: 11px; text-rendering: geometricprecision; fill: rgb(0, 0, 0);">+</text></g><line class="node" x1="83.96275329589844" x2="83.96275329589844" y1="0" y2="22.630000114440918" style="stroke: rgb(51, 51, 51); fill: none; stroke-width: 1px;"/><path class="node border" d="M5,0h95.48766994476318a5,5 0 0 1 5,5v12.630000114440918a5,5 0 0 1 -5,5h-95.48766994476318a5,5 0 0 1 -5,-5v-12.630000114440918a5,5 0 0 1 5,-5z" style="stroke: rgb(51, 51, 51); fill: none; stroke-width: 1px;"/></g></g><g id="node-name-model/14" class="node graph-node" style="opacity: 1;" transform="translate(75.244140625,618.1328258514404)"><g transform="translate(-30.13671875,-11.315000534057617)"><g class="node-item node-item-type" transform="translate(0,0)"><path d="M5,0h33.75a0,0 0 0 1 0,0v22.630000114440918a0,0 0 0 1 0,0h-33.75a5,5 0 0 1 -5,-5v-12.630000114440918a5,5 0 0 1 5,-5z" style="stroke: rgb(0, 0, 0); fill: rgb(0, 0, 0); stroke-width: 0px;"/><text x="6" y="15.861666679382324" style="font-family: -apple-system, BlinkMacSystemFont, &quot;Segoe WPC&quot;, &quot;Segoe UI&quot;, &quot;Ubuntu&quot;, &quot;Droid Sans&quot;, sans-serif, &quot;PingFang SC&quot;; font-size: 11px; text-rendering: geometricprecision; fill: rgb(255, 255, 255);">Conv</text><title>model/14</title></g><g class="node-item node-item-function" transform="translate(38.75,0)"><path d="M0,0h16.524916648864746a5,5 0 0 1 5,5v12.630000114440918a5,5 0 0 1 -5,5h-16.524916648864746a0,0 0 0 1 0,0v-22.630000114440918a0,0 0 0 1 0,0z" style="stroke: rgb(0, 0, 0); fill: rgb(255, 255, 255); stroke-width: 0px;"/><text x="6" y="15.861666679382324" style="font-family: -apple-system, BlinkMacSystemFont, &quot;Segoe WPC&quot;, &quot;Segoe UI&quot;, &quot;Ubuntu&quot;, &quot;Droid Sans&quot;, sans-serif, &quot;PingFang SC&quot;; font-size: 11px; text-rendering: geometricprecision; fill: rgb(0, 0, 0);">+</text></g><line class="node" x1="38.75" x2="38.75" y1="0" y2="22.630000114440918" style="stroke: rgb(51, 51, 51); fill: none; stroke-width: 1px;"/><path class="node border" d="M5,0h50.274916648864746a5,5 0 0 1 5,5v12.630000114440918a5,5 0 0 1 -5,5h-50.274916648864746a5,5 0 0 1 -5,-5v-12.630000114440918a5,5 0 0 1 5,-5z" style="stroke: rgb(51, 51, 51); fill: none; stroke-width: 1px;"/></g></g><g id="node-name-model/15" class="node graph-node" style="opacity: 1;" transform="translate(75.244140625,660.762279510498)"><g transform="translate(-31.322265625,-11.314453125)"><g class="node-item node-item-type node-item-type-data" transform="translate(0,0)"><path d="M5,0h52.645668029785156a5,5 0 0 1 5,5v12.630000114440918a5,5 0 0 1 -5,5h-52.645668029785156a5,5 0 0 1 -5,-5v-12.630000114440918a5,5 0 0 1 5,-5z" style="stroke: rgb(0, 0, 0); fill: rgb(85, 85, 85); stroke-width: 0px;"/><text x="6" y="15.861666679382324" style="font-family: -apple-system, BlinkMacSystemFont, &quot;Segoe WPC&quot;, &quot;Segoe UI&quot;, &quot;Ubuntu&quot;, &quot;Droid Sans&quot;, sans-serif, &quot;PingFang SC&quot;; font-size: 11px; text-rendering: geometricprecision; fill: rgb(255, 255, 255);">Upsample</text><title>model/15</title></g><path class="node border" d="M5,0h52.645668029785156a5,5 0 0 1 5,5v12.630000114440918a5,5 0 0 1 -5,5h-52.645668029785156a5,5 0 0 1 -5,-5v-12.630000114440918a5,5 0 0 1 5,-5z" style="stroke: rgb(51, 51, 51); fill: none; stroke-width: 1px;"/></g></g><g id="node-name-model/16" class="node graph-node" style="opacity: 1;" transform="translate(75.244140625,703.391185760498)"><g transform="translate(-23.943359375,-11.314453125)"><g class="node-item node-item-type" transform="translate(0,0)"><path d="M5,0h37.885498046875a5,5 0 0 1 5,5v12.630000114440918a5,5 0 0 1 -5,5h-37.885498046875a5,5 0 0 1 -5,-5v-12.630000114440918a5,5 0 0 1 5,-5z" style="stroke: rgb(0, 0, 0); fill: rgb(0, 0, 0); stroke-width: 0px;"/><text x="6" y="15.861666679382324" style="font-family: -apple-system, BlinkMacSystemFont, &quot;Segoe WPC&quot;, &quot;Segoe UI&quot;, &quot;Ubuntu&quot;, &quot;Droid Sans&quot;, sans-serif, &quot;PingFang SC&quot;; font-size: 11px; text-rendering: geometricprecision; fill: rgb(255, 255, 255);">Concat</text><title>model/16</title></g><path class="node border" d="M5,0h37.885498046875a5,5 0 0 1 5,5v12.630000114440918a5,5 0 0 1 -5,5h-37.885498046875a5,5 0 0 1 -5,-5v-12.630000114440918a5,5 0 0 1 5,-5z" style="stroke: rgb(51, 51, 51); fill: none; stroke-width: 1px;"/></g></g><g id="node-name-model/17" class="node graph-node" style="opacity: 1;" transform="translate(75.244140625,746.0206394195557)"><g transform="translate(-52.744140625,-11.315000534057617)"><g class="node-item node-item-type" transform="translate(0,0)"><path d="M5,0h78.96275329589844a0,0 0 0 1 0,0v22.630000114440918a0,0 0 0 1 0,0h-78.96275329589844a5,5 0 0 1 -5,-5v-12.630000114440918a5,5 0 0 1 5,-5z" style="stroke: rgb(0, 0, 0); fill: rgb(0, 0, 0); stroke-width: 0px;"/><text x="6" y="15.861666679382324" style="font-family: -apple-system, BlinkMacSystemFont, &quot;Segoe WPC&quot;, &quot;Segoe UI&quot;, &quot;Ubuntu&quot;, &quot;Droid Sans&quot;, sans-serif, &quot;PingFang SC&quot;; font-size: 11px; text-rendering: geometricprecision; fill: rgb(255, 255, 255);">BottleneckCSP</text><title>model/17</title></g><g class="node-item node-item-function" transform="translate(83.96275329589844,0)"><path d="M0,0h16.524916648864746a5,5 0 0 1 5,5v12.630000114440918a5,5 0 0 1 -5,5h-16.524916648864746a0,0 0 0 1 0,0v-22.630000114440918a0,0 0 0 1 0,0z" style="stroke: rgb(0, 0, 0); fill: rgb(255, 255, 255); stroke-width: 0px;"/><text x="6" y="15.861666679382324" style="font-family: -apple-system, BlinkMacSystemFont, &quot;Segoe WPC&quot;, &quot;Segoe UI&quot;, &quot;Ubuntu&quot;, &quot;Droid Sans&quot;, sans-serif, &quot;PingFang SC&quot;; font-size: 11px; text-rendering: geometricprecision; fill: rgb(0, 0, 0);">+</text></g><line class="node" x1="83.96275329589844" x2="83.96275329589844" y1="0" y2="22.630000114440918" style="stroke: rgb(51, 51, 51); fill: none; stroke-width: 1px;"/><path class="node border" d="M5,0h95.48766994476318a5,5 0 0 1 5,5v12.630000114440918a5,5 0 0 1 -5,5h-95.48766994476318a5,5 0 0 1 -5,-5v-12.630000114440918a5,5 0 0 1 5,-5z" style="stroke: rgb(51, 51, 51); fill: none; stroke-width: 1px;"/></g></g><g id="node-name-model/18" class="node graph-node" style="opacity: 1;" transform="translate(75.244140625,788.6506404876709)"><g transform="translate(-30.13671875,-11.315000534057617)"><g class="node-item node-item-type" transform="translate(0,0)"><path d="M5,0h33.75a0,0 0 0 1 0,0v22.630000114440918a0,0 0 0 1 0,0h-33.75a5,5 0 0 1 -5,-5v-12.630000114440918a5,5 0 0 1 5,-5z" style="stroke: rgb(0, 0, 0); fill: rgb(0, 0, 0); stroke-width: 0px;"/><text x="6" y="15.861666679382324" style="font-family: -apple-system, BlinkMacSystemFont, &quot;Segoe WPC&quot;, &quot;Segoe UI&quot;, &quot;Ubuntu&quot;, &quot;Droid Sans&quot;, sans-serif, &quot;PingFang SC&quot;; font-size: 11px; text-rendering: geometricprecision; fill: rgb(255, 255, 255);">Conv</text><title>model/18</title></g><g class="node-item node-item-function" transform="translate(38.75,0)"><path d="M0,0h16.524916648864746a5,5 0 0 1 5,5v12.630000114440918a5,5 0 0 1 -5,5h-16.524916648864746a0,0 0 0 1 0,0v-22.630000114440918a0,0 0 0 1 0,0z" style="stroke: rgb(0, 0, 0); fill: rgb(255, 255, 255); stroke-width: 0px;"/><text x="6" y="15.861666679382324" style="font-family: -apple-system, BlinkMacSystemFont, &quot;Segoe WPC&quot;, &quot;Segoe UI&quot;, &quot;Ubuntu&quot;, &quot;Droid Sans&quot;, sans-serif, &quot;PingFang SC&quot;; font-size: 11px; text-rendering: geometricprecision; fill: rgb(0, 0, 0);">+</text></g><line class="node" x1="38.75" x2="38.75" y1="0" y2="22.630000114440918" style="stroke: rgb(51, 51, 51); fill: none; stroke-width: 1px;"/><path class="node border" d="M5,0h50.274916648864746a5,5 0 0 1 5,5v12.630000114440918a5,5 0 0 1 -5,5h-50.274916648864746a5,5 0 0 1 -5,-5v-12.630000114440918a5,5 0 0 1 5,-5z" style="stroke: rgb(51, 51, 51); fill: none; stroke-width: 1px;"/></g></g><g id="node-name-model/19" class="node graph-node" style="opacity: 1;" transform="translate(75.244140625,831.2800941467285)"><g transform="translate(-23.943359375,-11.314453125)"><g class="node-item node-item-type" transform="translate(0,0)"><path d="M5,0h37.885498046875a5,5 0 0 1 5,5v12.630000114440918a5,5 0 0 1 -5,5h-37.885498046875a5,5 0 0 1 -5,-5v-12.630000114440918a5,5 0 0 1 5,-5z" style="stroke: rgb(0, 0, 0); fill: rgb(0, 0, 0); stroke-width: 0px;"/><text x="6" y="15.861666679382324" style="font-family: -apple-system, BlinkMacSystemFont, &quot;Segoe WPC&quot;, &quot;Segoe UI&quot;, &quot;Ubuntu&quot;, &quot;Droid Sans&quot;, sans-serif, &quot;PingFang SC&quot;; font-size: 11px; text-rendering: geometricprecision; fill: rgb(255, 255, 255);">Concat</text><title>model/19</title></g><path class="node border" d="M5,0h37.885498046875a5,5 0 0 1 5,5v12.630000114440918a5,5 0 0 1 -5,5h-37.885498046875a5,5 0 0 1 -5,-5v-12.630000114440918a5,5 0 0 1 5,-5z" style="stroke: rgb(51, 51, 51); fill: none; stroke-width: 1px;"/></g></g><g id="node-name-model/20" class="node graph-node" style="opacity: 1;" transform="translate(75.244140625,873.9095478057861)"><g transform="translate(-52.744140625,-11.315000534057617)"><g class="node-item node-item-type" transform="translate(0,0)"><path d="M5,0h78.96275329589844a0,0 0 0 1 0,0v22.630000114440918a0,0 0 0 1 0,0h-78.96275329589844a5,5 0 0 1 -5,-5v-12.630000114440918a5,5 0 0 1 5,-5z" style="stroke: rgb(0, 0, 0); fill: rgb(0, 0, 0); stroke-width: 0px;"/><text x="6" y="15.861666679382324" style="font-family: -apple-system, BlinkMacSystemFont, &quot;Segoe WPC&quot;, &quot;Segoe UI&quot;, &quot;Ubuntu&quot;, &quot;Droid Sans&quot;, sans-serif, &quot;PingFang SC&quot;; font-size: 11px; text-rendering: geometricprecision; fill: rgb(255, 255, 255);">BottleneckCSP</text><title>model/20</title></g><g class="node-item node-item-function" transform="translate(83.96275329589844,0)"><path d="M0,0h16.524916648864746a5,5 0 0 1 5,5v12.630000114440918a5,5 0 0 1 -5,5h-16.524916648864746a0,0 0 0 1 0,0v-22.630000114440918a0,0 0 0 1 0,0z" style="stroke: rgb(0, 0, 0); fill: rgb(255, 255, 255); stroke-width: 0px;"/><text x="6" y="15.861666679382324" style="font-family: -apple-system, BlinkMacSystemFont, &quot;Segoe WPC&quot;, &quot;Segoe UI&quot;, &quot;Ubuntu&quot;, &quot;Droid Sans&quot;, sans-serif, &quot;PingFang SC&quot;; font-size: 11px; text-rendering: geometricprecision; fill: rgb(0, 0, 0);">+</text></g><line class="node" x1="83.96275329589844" x2="83.96275329589844" y1="0" y2="22.630000114440918" style="stroke: rgb(51, 51, 51); fill: none; stroke-width: 1px;"/><path class="node border" d="M5,0h95.48766994476318a5,5 0 0 1 5,5v12.630000114440918a5,5 0 0 1 -5,5h-95.48766994476318a5,5 0 0 1 -5,-5v-12.630000114440918a5,5 0 0 1 5,-5z" style="stroke: rgb(51, 51, 51); fill: none; stroke-width: 1px;"/></g></g><g id="node-name-model/21" class="node graph-node" style="opacity: 1;" transform="translate(75.244140625,916.5395488739014)"><g transform="translate(-30.13671875,-11.315000534057617)"><g class="node-item node-item-type" transform="translate(0,0)"><path d="M5,0h33.75a0,0 0 0 1 0,0v22.630000114440918a0,0 0 0 1 0,0h-33.75a5,5 0 0 1 -5,-5v-12.630000114440918a5,5 0 0 1 5,-5z" style="stroke: rgb(0, 0, 0); fill: rgb(0, 0, 0); stroke-width: 0px;"/><text x="6" y="15.861666679382324" style="font-family: -apple-system, BlinkMacSystemFont, &quot;Segoe WPC&quot;, &quot;Segoe UI&quot;, &quot;Ubuntu&quot;, &quot;Droid Sans&quot;, sans-serif, &quot;PingFang SC&quot;; font-size: 11px; text-rendering: geometricprecision; fill: rgb(255, 255, 255);">Conv</text><title>model/21</title></g><g class="node-item node-item-function" transform="translate(38.75,0)"><path d="M0,0h16.524916648864746a5,5 0 0 1 5,5v12.630000114440918a5,5 0 0 1 -5,5h-16.524916648864746a0,0 0 0 1 0,0v-22.630000114440918a0,0 0 0 1 0,0z" style="stroke: rgb(0, 0, 0); fill: rgb(255, 255, 255); stroke-width: 0px;"/><text x="6" y="15.861666679382324" style="font-family: -apple-system, BlinkMacSystemFont, &quot;Segoe WPC&quot;, &quot;Segoe UI&quot;, &quot;Ubuntu&quot;, &quot;Droid Sans&quot;, sans-serif, &quot;PingFang SC&quot;; font-size: 11px; text-rendering: geometricprecision; fill: rgb(0, 0, 0);">+</text></g><line class="node" x1="38.75" x2="38.75" y1="0" y2="22.630000114440918" style="stroke: rgb(51, 51, 51); fill: none; stroke-width: 1px;"/><path class="node border" d="M5,0h50.274916648864746a5,5 0 0 1 5,5v12.630000114440918a5,5 0 0 1 -5,5h-50.274916648864746a5,5 0 0 1 -5,-5v-12.630000114440918a5,5 0 0 1 5,-5z" style="stroke: rgb(51, 51, 51); fill: none; stroke-width: 1px;"/></g></g><g id="node-name-model/22" class="node graph-node" style="opacity: 1;" transform="translate(75.244140625,959.169002532959)"><g transform="translate(-23.943359375,-11.314453125)"><g class="node-item node-item-type" transform="translate(0,0)"><path d="M5,0h37.885498046875a5,5 0 0 1 5,5v12.630000114440918a5,5 0 0 1 -5,5h-37.885498046875a5,5 0 0 1 -5,-5v-12.630000114440918a5,5 0 0 1 5,-5z" style="stroke: rgb(0, 0, 0); fill: rgb(0, 0, 0); stroke-width: 0px;"/><text x="6" y="15.861666679382324" style="font-family: -apple-system, BlinkMacSystemFont, &quot;Segoe WPC&quot;, &quot;Segoe UI&quot;, &quot;Ubuntu&quot;, &quot;Droid Sans&quot;, sans-serif, &quot;PingFang SC&quot;; font-size: 11px; text-rendering: geometricprecision; fill: rgb(255, 255, 255);">Concat</text><title>model/22</title></g><path class="node border" d="M5,0h37.885498046875a5,5 0 0 1 5,5v12.630000114440918a5,5 0 0 1 -5,5h-37.885498046875a5,5 0 0 1 -5,-5v-12.630000114440918a5,5 0 0 1 5,-5z" style="stroke: rgb(51, 51, 51); fill: none; stroke-width: 1px;"/></g></g><g id="node-name-model/23" class="node graph-node" style="opacity: 1;" transform="translate(75.244140625,1001.7984561920166)"><g transform="translate(-52.744140625,-11.315000534057617)"><g class="node-item node-item-type" transform="translate(0,0)"><path d="M5,0h78.96275329589844a0,0 0 0 1 0,0v22.630000114440918a0,0 0 0 1 0,0h-78.96275329589844a5,5 0 0 1 -5,-5v-12.630000114440918a5,5 0 0 1 5,-5z" style="stroke: rgb(0, 0, 0); fill: rgb(0, 0, 0); stroke-width: 0px;"/><text x="6" y="15.861666679382324" style="font-family: -apple-system, BlinkMacSystemFont, &quot;Segoe WPC&quot;, &quot;Segoe UI&quot;, &quot;Ubuntu&quot;, &quot;Droid Sans&quot;, sans-serif, &quot;PingFang SC&quot;; font-size: 11px; text-rendering: geometricprecision; fill: rgb(255, 255, 255);">BottleneckCSP</text><title>model/23</title></g><g class="node-item node-item-function" transform="translate(83.96275329589844,0)"><path d="M0,0h16.524916648864746a5,5 0 0 1 5,5v12.630000114440918a5,5 0 0 1 -5,5h-16.524916648864746a0,0 0 0 1 0,0v-22.630000114440918a0,0 0 0 1 0,0z" style="stroke: rgb(0, 0, 0); fill: rgb(255, 255, 255); stroke-width: 0px;"/><text x="6" y="15.861666679382324" style="font-family: -apple-system, BlinkMacSystemFont, &quot;Segoe WPC&quot;, &quot;Segoe UI&quot;, &quot;Ubuntu&quot;, &quot;Droid Sans&quot;, sans-serif, &quot;PingFang SC&quot;; font-size: 11px; text-rendering: geometricprecision; fill: rgb(0, 0, 0);">+</text></g><line class="node" x1="83.96275329589844" x2="83.96275329589844" y1="0" y2="22.630000114440918" style="stroke: rgb(51, 51, 51); fill: none; stroke-width: 1px;"/><path class="node border" d="M5,0h95.48766994476318a5,5 0 0 1 5,5v12.630000114440918a5,5 0 0 1 -5,5h-95.48766994476318a5,5 0 0 1 -5,-5v-12.630000114440918a5,5 0 0 1 5,-5z" style="stroke: rgb(51, 51, 51); fill: none; stroke-width: 1px;"/></g></g><g id="node-name-model/24" class="node graph-node" style="opacity: 1;" transform="translate(75.244140625,1044.4284572601318)"><g transform="translate(-33.638671875,-11.315000534057617)"><g class="node-item node-item-type" transform="translate(0,0)"><path d="M5,0h40.75241661071777a0,0 0 0 1 0,0v22.630000114440918a0,0 0 0 1 0,0h-40.75241661071777a5,5 0 0 1 -5,-5v-12.630000114440918a5,5 0 0 1 5,-5z" style="stroke: rgb(0, 0, 0); fill: rgb(0, 0, 0); stroke-width: 0px;"/><text x="6" y="15.861666679382324" style="font-family: -apple-system, BlinkMacSystemFont, &quot;Segoe WPC&quot;, &quot;Segoe UI&quot;, &quot;Ubuntu&quot;, &quot;Droid Sans&quot;, sans-serif, &quot;PingFang SC&quot;; font-size: 11px; text-rendering: geometricprecision; fill: rgb(255, 255, 255);">Detect</text><title>model/24</title></g><g class="node-item node-item-function" transform="translate(45.75241661071777,0)"><path d="M0,0h16.524916648864746a5,5 0 0 1 5,5v12.630000114440918a5,5 0 0 1 -5,5h-16.524916648864746a0,0 0 0 1 0,0v-22.630000114440918a0,0 0 0 1 0,0z" style="stroke: rgb(0, 0, 0); fill: rgb(255, 255, 255); stroke-width: 0px;"/><text x="6" y="15.861666679382324" style="font-family: -apple-system, BlinkMacSystemFont, &quot;Segoe WPC&quot;, &quot;Segoe UI&quot;, &quot;Ubuntu&quot;, &quot;Droid Sans&quot;, sans-serif, &quot;PingFang SC&quot;; font-size: 11px; text-rendering: geometricprecision; fill: rgb(0, 0, 0);">+</text></g><line class="node" x1="45.75241661071777" x2="45.75241661071777" y1="0" y2="22.630000114440918" style="stroke: rgb(51, 51, 51); fill: none; stroke-width: 1px;"/><path class="node border" d="M5,0h57.27733325958252a5,5 0 0 1 5,5v12.630000114440918a5,5 0 0 1 -5,5h-57.27733325958252a5,5 0 0 1 -5,-5v-12.630000114440918a5,5 0 0 1 5,-5z" style="stroke: rgb(51, 51, 51); fill: none; stroke-width: 1px;"/></g></g></g></g></svg>